<?xml version="1.0" standalone="no"?>
<!DOCTYPE svg PUBLIC "-//W3C//DTD SVG 20010904//EN"
 "http://www.w3.org/TR/2001/REC-SVG-20010904/DTD/svg10.dtd">
<svg version="1.0" xmlns="http://www.w3.org/2000/svg"
 width="260.000000pt" height="260.000000pt" viewBox="0 0 260.000000 260.000000"
 preserveAspectRatio="xMidYMid meet">

<g transform="translate(0.000000,260.000000) scale(0.100000,-0.100000)"
fill="#000000" stroke="none">
<path d="M0 1428 l0 -43 575 0 574 0 65 -64 65 -65 27 27 c20 21 37 27 68 27
l40 0 -64 65 -64 65 -347 0 c-296 0 -348 2 -359 15 -11 13 -56 15 -296 15
l-284 0 0 -42z"/>
<path d="M1311 1276 c-13 -14 -20 -29 -16 -35 8 -15 1305 -15 1305 -1 0 7
-193 10 -558 10 l-559 0 -23 25 c-33 36 -116 36 -149 1z"/>
<path d="M1755 1170 c-21 -22 -35 -40 -29 -40 5 0 28 18 49 40 21 22 35 40 29
40 -5 0 -28 -18 -49 -40z"/>
<path d="M1855 1170 c-51 -52 -23 -52 30 0 25 26 34 40 25 40 -9 0 -34 -18
-55 -40z"/>
<path d="M1955 1170 c-32 -33 -35 -40 -20 -40 11 1 38 19 60 40 34 34 37 40
20 40 -12 0 -39 -18 -60 -40z"/>
<path d="M2055 1170 c-38 -39 -38 -40 -14 -40 23 0 89 54 89 73 0 20 -41 2
-75 -33z"/>
<path d="M2155 1170 c-38 -38 -38 -40 -15 -40 21 0 100 60 100 75 0 3 -10 5
-23 5 -14 0 -39 -16 -62 -40z"/>
<path d="M2255 1170 l-39 -40 30 0 c22 0 41 11 69 40 l39 40 -30 0 c-22 0 -41
-11 -69 -40z"/>
<path d="M2365 1170 l-39 -40 35 0 c28 0 43 8 74 40 l39 40 -35 0 c-28 0 -43
-8 -74 -40z"/>
<path d="M2475 1170 l-39 -40 37 0 c28 0 46 8 72 32 43 39 44 48 2 48 -25 0
-42 -9 -72 -40z"/>
<path d="M1649 1163 l-34 -38 38 34 c20 19 37 36 37 38 0 8 -8 0 -41 -34z"/>
</g>
</svg>
